<?xml version="1.0" encoding="utf8" standalone="no"?>
<svg enable-background="new 0 0 271.15 92.904" viewBox="0 0 271.15 92.904" xml:space="preserve" xmlns="http://www.w3.org/2000/svg" xmlns:xml="http://www.w3.org/XML/1998/namespace"><defs></defs>


<path d="m192.749,23.263 78.401-23.263c-4.128.055-8.095,1.718-12.041,2.862l-26.996,7.834-27.729,8.046-8.864,2.573c-1.064.31-3.382.316-2.771,1.948" fill="#d8e5e5" fill-rule="evenodd"></path>

<path d="m199.562,20.894c.505,1.866-1.935,2.719-3.208,3.375-.351.181-2.195-3.832-2.509-4.439 2.138-.028 3.795-.003 5.717,1.064" fill="#333" fill-rule="evenodd"></path>
<path d="m196.186,24.356 2.252-2.309c-1.264-.005-2.619.915-2.252,2.309" fill="#4c4c4c" fill-rule="evenodd"></path>
<path d="m82.717,69.733 97.712-30.602 12.435-3.894c3.182-.997 3.964-5.557 3.927-8.374-.017-1.206-1.387-3.301-1.731-4.602-.186-.705-.908-1.204-1.207-1.86-.345-.756-.247-1.755-.723-2.447-.971-1.414-2.059-2.629-3.353-3.766-.888-.778-3.669-2.119-4.879-1.495-2.725,1.406-6.471,1.489-9.539,2.299-3.517.928-7.285,1.904-10.629,3.292-3.165,1.314-6.979,1.702-10.283,2.852-12.98,4.514-26.69,7.848-39.979,11.355-3.702.978-7.338,2.049-10.954,3.308-1.439.5-3.08.358-4.545.798-1.981.594-3.939,1.199-5.891,1.878-3.53,1.228-6.92,2.093-10.597,2.756-1.438.259-3.021,1.356-4.517,1.751-1.603.422-3.357,1.226-5.001,1.248-.973.013-1.619.608-2.557.603l12.311,24.9" fill="#b2bfbf" fill-rule="evenodd"></path>
<path d="m195.061,25.51c-1.167-3.347-2.686-6.142-4.685-9.051 1.562,3.018 3.124,6.035 4.685,9.051" fill="#fff" fill-rule="evenodd"></path>

<path d="m82.686,67.454 98.067-29.694 12.12-3.669c.879-.268 1.274-3.236 1.393-4.012 .319-2.085-.015-3.93-.276-6.031-.352-2.811-3.762-6.045-5.721-7.951-2.539-2.469-6.42-.446-9.306-.054-3.005.408-6.759,1.587-9.626,2.585-3.606,1.255-7.255,2.142-10.828,3.384-3.32,1.155-6.839,1.425-10.195,2.593-6.321,2.199-12.833,3.822-19.241,5.744-5.903,1.77-12.172,4.12-18.25,5.07-6.69,1.046-12.8,4.344-19.423,5.538-3.27.59-6.215,1.863-9.445,2.555-3.066.654-6.143,2.354-9.253,2.432l9.984,21.51" fill="#e5eded" fill-rule="evenodd"></path>
<path d="m183.1,26.81c.881,2.525 4.971,8.845 8.653,7.29 4.032-1.704 1.875-9.002 1.014-11.864-.844-2.809-4.988-8.735-8.384-6.983-4.078,2.104-2.079,8.195-1.283,11.557" fill="#e5f2f2" fill-rule="evenodd"></path>
<path d="m91.476,42.275 92.764-25.471c1.419-.39 2.391-.213 3.864.255-3.122,1.087-6.398,1.832-9.66,2.693-3.313.875-6.276,2.197-9.641,2.916-7.199,1.539-14.505,3.861-21.461,6.28-6.874,2.392-14.149,3.587-21.024,5.978-3.168,1.102-6.847,1.229-9.968,2.523-3.505,1.456-6.96,2.385-10.614,3.349-2.463.65-4.973,1.213-7.41,1.956l-3.977,1.192c-.597.178-.805.996-1.704.592-.429-.193-.937-1.815-1.169-2.263" fill="#f7f7f7" fill-rule="evenodd"></path>
<path d="m188.201,24.463c.854,1.651 1.565,3.306 3.477,3.94 .81-2.542.625-5.012-1.413-6.994-.986-.959-2.074-2.242-2.679-.356-.317.988.372,2.489.615,3.41" fill="#7f7f7f" fill-rule="evenodd"></path>
<path d="m186.492,24.486c1.114,1.444 2.215,3.325 4.044,3.933 .932-2.92 1.864-4.371-.533-6.701-.84-.817-1.711-.719-2.697-.375-1.328.461-.833,1.832-.814,3.143" fill="#4c4c4c" fill-rule="evenodd"></path>
<path d="m189.342,24.448c-.187.192-.374.385-.563.577 .903,1.087.938-.423 1.703-.592-.421-.065-1.397-1.141-1.155-1.124-.991-.07-.542.731.015,1.139" fill="#191919" fill-rule="evenodd"></path>
<path d="m81.241,44.69c-.445,1.904 3.747,4.769 5.036,6.021 1.847,1.795 2.258,5.096 2.63,7.481 .25,1.59.392,3.106 1.01,4.592 .901,2.167.922,1.445 2.981,1.006 2.195-.469 6.772-1.453 7.407-4.145 1.404-5.941.095-11.502-4.245-15.722-2.099-2.041-3.852-3.111-6.821-2.576-3.128.563-5.751,1.038-7.998,3.343" fill="#7f7f7f" fill-rule="evenodd"></path>
<path d="m96.638,44.484-7.309,2.354c-.983.315-4.827-2.739-5.823-3.318 1.729-.602 5.206-2.668 6.971-2.34 2.795.52 4.128,1.327 6.161,3.304" fill="#666" fill-rule="evenodd"></path>
<path d="m98.95,46.731c-1.109-1.293-2.188-2.265-3.773-2.033l-7.077,1.039c.806,1.366 1.517,4.241 3.22,3.648l7.63-2.654" fill="#727272" fill-rule="evenodd"></path>
<path d="m81.4,56.649c1.313,3.762 6.04,7.896 10.076,7.841 2.235-.03 2.522-4.095 2.502-5.624-.035-2.633-.453-4.683-1.327-7.19-.918-2.639-5.615-10.575-9.32-8.035-4.461,3.059-3.28,8.519-1.931,13.008" fill="#4c4c4c" fill-rule="evenodd"></path>
<path d="m82.648,64.608c2.474-.743 6.698-1.096 8.516-2.963 1.079-1.105-.982-3.07-1.704-4.238-1.242-2.005-1.214-2.045-.482-4.333 .679-2.129-1.125-2.206-2.854-2.183-.743.01-1.942-3.695-2.27-4.405-.688-1.493-6.704,1.687-8.263,2.266l7.057,15.856" fill="#ccc" fill-rule="evenodd"></path>
<path d="m85.887,50.895-5.589,2.32c-.228.092-2.157-3.975-2.426-4.493 1.889-.973 3.777-1.949 5.665-2.924l2.35,5.097" fill="#b2b2b2" fill-rule="evenodd"></path>
<path d="m88.184,52.004-4.658,1.617c-2.243.781-2.157.599-2.125,3.028 1.921-.344 3.84-.693 5.763-1.037 1.794-.323 1.042-1.942 1.02-3.608" fill="#eaeaea" fill-rule="evenodd"></path>
<path d="m90.586,61.084c-2.651.795-5.302,1.59-7.953,2.385 1.546-.24 8.654-.33 7.953-2.385" fill="#eaeaea" fill-rule="evenodd"></path>


































<path d="m196.239,28.342c-3.595.048-6.366,1.704-9.822,2.441-3.521.753-7.239,1.778-10.639,2.959-3.27,1.137-6.857,1.246-9.976,2.855-3.286,1.696-6.926,2.049-10.479,3.114-6.584,1.974-13.438,3.583-19.884,5.962-3.494,1.29-6.542,2.734-10.268,3.316-3.482.545-6.803,1.858-10.123,3.014-6.831,2.376-14.483,3.356-20.904,6.669-1.292.669-3.257.76-4.695,1.14-1.72.454-3.442,1.574-5.129,1.925-.104.021-2.459.561-2.273.602-.951-.217-.583-.963-.599-2.037-.005-.381.35-.34.698-.446l44.281-13.34 69.773-21.021c.014.95.028,1.899.039,2.847" fill="#fff" fill-rule="evenodd"></path>
<path d="m90.868,82.156c-1.139-.921-2.086-2.922-2.761-4.226-.799-1.546-1.994-2.836-2.579-4.515-.564-1.619-1.602-3.01-2.4-4.554-.764-1.476-.466-3.307-.489-4.951-.052-3.936-.294-7.653-2.137-11.215-1.328-2.57-3.601-6.929-6.406-7.821-3.446-1.096-4.944-5.012-6.079-7.981-.97-2.54-4.832-6.403-3.399-9.365 .946-1.955-.608-3.6-2.43-2.352-.773.53-.91,1.197-1.143,2.125-.361,1.443-.343,1.001.327,2.295 .77,1.487 1.057,2.959 1.7,4.508 .752,1.804 1.933,3.335 2.695,5.096 1.041,2.399 2.352,5.326 2.387,7.942 .039,2.917-.352,6.242.122,9.111 .485,2.937 2.205,5.924 3.556,8.533 1.611,3.114 4.278,4.711 7.025,6.896 4.129,3.282 7.209,8.405 9.617,13.058 1.091,2.11 5.237,5.584 6.874,2.208 .454-.938.825-.645.273-1.714-.257-.496-1.083-.96-1.594-.697-1.339.692-2.66-1.055-3.159-2.381" fill="#b2cccc" fill-rule="evenodd"></path>
<path d="m76.747,49.878c-.78-.994-2.214-1.029-3.163-1.952-.857-.834-1.968-1.352-2.773-2.136-.716-.696-5.143-6.018-3.03-6.046 1.747-.023 1.328,1.249 2.136,2.427 .919,1.335 1.835,1.725 2.951,2.809 1.086,1.058 2.201,1.257 3.543,1.906 .708.342 1.556,3.073.336,2.992" fill="#8cb2b2" fill-rule="evenodd"></path>
<path d="m94.914,86.09c-1.358,1.888-2.749.799-3.438-1.094 1.353-.019 2.477-.026 3.438,1.094" fill="#e0eded" fill-rule="evenodd"></path>
<path d="m82.732,70.871c.146-1.387-.76-2.36-.335-3.696 .426-1.341.249-2.727.23-4.129l-.051-3.866c-.021-1.536-1.72-1.435-2.285-.236-.976,2.073 1.279,5.271 1.239,7.389-.026,1.33-.636,1.918-.24,3.42 .179.672 1.262,2.768 1.442,1.118" fill="#e0eded" fill-rule="evenodd"></path>
<path d="m63.34,28.411c-.261-.997.352-1.721 1.11-2.293-2.993-2.151-2.076,1.218-1.103,2.862-.001-.189-.004-.379-.007-.569" fill="#e0eded" fill-rule="evenodd"></path>
<path d="m80.42,68.624c-.045-3.396-.062-6.908-1.007-10.196-.88-3.065-1.857-7.511-4.46-9.724l-4.481-3.811c-1.229-1.047-1.836-2.917-2.69-4.295-1.757-2.838-2.832-6.307-4.404-9.339-.335-.649-1.344-4.54-1.77-4.533-1.661.024.379,4.376.546,4.853 1.115,3.196 3.2,6.061 4.058,9.305 .866,3.279 3.822,5.706 2.644,9.403-.933,2.93-.723,7.359.701,10.107 1.571,3.036 3.145,4.996 5.716,7.161 1.678,1.411 5.711,3.787 6.44,5.876 .937,2.684 3.086,5.476 4.697,7.823 1.845,2.684 3.318,4.853 5.682,7.152-.016-1.187.227-1.587-.874-2.121-1.188-.573-.62-1.581-1.47-2.406-1.401-1.364-1.738-3.939-3.1-5.263-1.507-1.466-2.397-3.612-3.316-5.476-.646-1.308-3.309-2.865-2.912-4.516" fill="#8ca5a5" fill-rule="evenodd"></path>
<path d="m70.611,60.21c.967,2.775 4.303,8.488 7.824,8.442 1.366-.02.831-1.069.814-2.288-.019-1.362-.037-2.724-.055-4.085-.023-1.681-.536-4.271-1.303-5.752-.93-1.796-1.491-4.178-2.969-5.614-.703-.684-3.504-4.179-4.487-3.801-1.747.674-1.067,5.557-1.051,6.722 .029,2.073.827,4.341 1.227,6.376" fill="#3f5959" fill-rule="evenodd"></path>
<path d="m79.25,66.364c-16.249,4.932-32.496,9.863-48.744,14.798l-11.813,3.588c-1.431.433-3.705.616-4.199,1.845-.264.661.027,1.971.036,2.689 .011.793-.508,1.755-.746,2.505-.7,2.193-2.576.595-3.853-.44-3.327-2.694-4.536-6.521-6.407-10.355-1.498-3.071-2.455-5.72-2.928-9.128-.219-1.577-.757-3.36-.552-4.949 .19-1.463.121-5.006 2.717-4.658 1.955.261 3.758,6.457 4.957,6.115l6.999-1.984 55.406-15.713c3.647-1.035 4.545-.229 6.744,3.182 1.113,1.727 1.831,3.733 2.313,5.771l.997,4.211c.309,1.299-.963,1.309-.927,2.523" fill="#e5e5e5" fill-rule="evenodd"></path>
<path d="m11.159,92.904c1.283-5.437-.967-11.029-2.436-16.248-.631-2.242-1.857-4.518-3.17-6.428-1.091-1.587-2.274-5.699-4.754-5.664-1.732.021 1.842,13.922 2.2,15.349 .704,2.802 1.535,5.185 2.873,7.769 .874,1.69 3.426,4.606 5.287,5.222" fill="#bfbfbf" fill-rule="evenodd"></path>
<path d="m14.473,84.885c-.027-2.047.031-1.723 1.839-2.239l6.825-1.951c7.463-2.137 14.926-4.271 22.39-6.405l33.701-9.635c-1.158.17-2.348.675-3.224,1.572-.505.518-2.895.438-3.758.882-2.704,1.396-5.569,1.606-8.332,2.755-2.574,1.067-5.329,1.206-7.94,2.115-3.034,1.056-6.005,2.549-9.116,3.359-5.699,1.489-11.289,3.329-17.069,4.562-2.8.599-5.531,1.831-8.334,2.572-1.455.382-6.804,1.261-6.982,2.413" fill="#f2f2f2" fill-rule="evenodd"></path>
<path d="m76.823,55.571-48.743,14.799-11.81,3.588c-1.427.434-3.71.616-4.199,1.847-1.015,2.553 1.443,1.12 2.572,1.104 1.72-.021 3.875-1.277 5.378-2.056 2.962-1.526 6.618-1.544 9.699-2.821 4.161-1.728 8.725-2.249 12.889-3.976 3.846-1.599 8.294-2.324 12.233-3.694 4.192-1.459 8.619-2.833 12.898-3.963 1.855-.491 4.063-1.912 5.966-1.937 1.246-.018 1.742-.595 2.861-.608 .538-.008.263-1.745.256-2.283" fill="#f2f2f2" fill-rule="evenodd"></path>
<path d="m76.808,54.435-36.905,10.38-22.571,6.348-5.757,1.617c-1.415.398-2.24-3.189-3.024-4.331 12.333-3.56 24.666-7.116 37-10.671l22.266-6.422c1.574-.456 3.148-.908 4.722-1.362 1.81-.524 3.535,3.253 4.269,4.441" fill="#ccc" fill-rule="evenodd"></path>
<path d="m79.227,64.654-2.272-6.511c-.286-.821.023-1.729-.132-2.572-.208-1.137-.805-2.306-1.186-3.399-.002,1.709 2.162,3.842 2.642,5.658 .614,2.321.916,4.426.948,6.824" fill="#ccc" fill-rule="evenodd"></path>
<path d="m73.941,53.333c-.319-.916-.385-2.893-1.187-3.402 2.312-.065 3.202,2.856 4.053,4.503l-65.917,18.539c-.77-2.048 7.088-3.224 8.404-3.611l21.8-6.395 32.847-9.634" fill="#bababa" fill-rule="evenodd"></path>


</svg>
